<svg xmlns="http://www.w3.org/2000/svg" width="12.098" height="14.052" viewBox="0 0 12.098 14.052">
  <path id="composable" d="M10.986,13.462a2.542,2.542,0,0,1,.751-1.8L9.884,8.753a2.257,2.257,0,0,1-1.8,0L6.227,11.658a2.515,2.515,0,1,1-3.557.05,2.57,2.57,0,0,1,2.705-.6L7.229,8.2a2.515,2.515,0,1,1,3.557-.05l-.05.05,1.854,2.905a2.521,2.521,0,1,1-1.453,3.256A2.837,2.837,0,0,1,10.986,13.462Zm-8.015,0a1.476,1.476,0,0,0,1.5,1.5,1.5,1.5,0,1,0,0-3.006A1.476,1.476,0,0,0,2.971,13.462Zm7.514-7.013a1.5,1.5,0,1,0-1.5,1.5A1.476,1.476,0,0,0,10.485,6.448Zm4.509,7.013a1.5,1.5,0,1,0-1.5,1.5A1.476,1.476,0,0,0,14.994,13.462Z" transform="translate(15.985 -1.963) rotate(90)" fill="#227124"/>
</svg>
