<svg xmlns="http://www.w3.org/2000/svg" width="22.462" height="22.421" viewBox="0 0 22.462 22.421">
  <g id="Group_187" data-name="Group 187" transform="translate(-747.55 -593)">
    <g id="etherscan-logo-circle-light" transform="translate(747.55 593)">
      <path id="Path_40" data-name="Path 40" d="M4.668,10.838a.952.952,0,0,1,.956-.952l1.586.005a.953.953,0,0,1,.953.953v6c.178-.053.408-.109.659-.169a.794.794,0,0,0,.612-.773V8.462a.953.953,0,0,1,.953-.953h1.589a.953.953,0,0,1,.953.953v6.9s.4-.161.785-.325a.8.8,0,0,0,.486-.732V6.079a.953.953,0,0,1,.953-.953h1.589a.953.953,0,0,1,.953.953v6.776a18.632,18.632,0,0,0,3.881-3.643,1.6,1.6,0,0,0,.243-1.494A11.221,11.221,0,1,0,1.491,16.991a1.419,1.419,0,0,0,1.354.7c.3-.026.675-.064,1.12-.116a.794.794,0,0,0,.7-.788Z" transform="translate(0 -0.181)" fill="#364659"/>
      <path id="Path_41" data-name="Path 41" d="M25.1,66.505a11.225,11.225,0,0,0,17.828-9.08c0-.258-.012-.514-.029-.768-4.1,6.117-11.674,8.977-17.8,9.847" transform="translate(-20.468 -46.232)" fill="#364659"/>
    </g>
  </g>
</svg>
