<svg xmlns="http://www.w3.org/2000/svg" width="12.725" height="13.255" viewBox="0 0 12.725 13.255">
  <g id="Group_246" data-name="Group 246" transform="translate(-7.762 -7.497)">
    <path id="shield-star" d="M35.219,45.1a.53.53,0,0,1,.691-.294l1.922.769V43.712a.53.53,0,1,1,1.06,0v1.868l1.922-.769a.531.531,0,0,1,.4.985l-2.009.8,1.174,1.567a.53.53,0,0,1-.848.636l-1.166-1.556L37.2,48.8a.53.53,0,0,1-.848-.636L37.524,46.6l-2.011-.8a.53.53,0,0,1-.294-.691Zm9.506-4.043v3.9A8.636,8.636,0,0,1,38.694,53.2a1.023,1.023,0,0,1-.663,0A8.629,8.629,0,0,1,32,44.956v-3.9A1.06,1.06,0,0,1,33.06,40h10.6A1.06,1.06,0,0,1,44.725,41.06Zm-1.06,0H33.06v3.9a7.587,7.587,0,0,0,5.3,7.236,7.588,7.588,0,0,0,5.3-7.236Z" transform="translate(-24.238 -32.503)" fill="#215181"/>
  </g>
</svg>
